<?xml version="1.0" encoding="UTF-8"?><svg id="Layer_1" xmlns="http://www.w3.org/2000/svg" viewBox="0 0 200 200"><defs><style>.cls-1{fill:none;stroke:#fdb713;stroke-linecap:round;stroke-linejoin:round;stroke-width:8px;}</style></defs><path class="cls-1" d="m144.29,153.58L116.28,23.52c-.48-2.34-2.54-4.02-4.93-4.02h-23.33c-2.37,0-4.42,1.67-4.9,3.99l-27.95,130.08c-.48,2.34-2.54,4.02-4.93,4.02h-20.11c-2.78,0-5.03,2.25-5.03,5.03v12.83c0,2.78,2.25,5.03,5.03,5.03h139.72c2.78,0,5.03-2.25,5.03-5.03v-12.83c0-2.78-2.25-5.03-5.03-5.03h-20.64c-2.39,0-4.45-1.68-4.93-4.02Z"/></svg>